# xmcd
#
# Track frame offsets: 
#        150
#        20700
#        36332
#        58225
#        76555
#        98402
#        121400
#        144957
#        159510
#        173770
#
# Disc length: 2712 seconds
#
# Revision: 3
# Processed by: cddbd v1.5.2PL0 Copyright (c) Steve Scherf et al.
# Submitted via: ExactAudioCopyFreeDBPlugin 1.0
#
DISCID=750a960a
DTITLE=Eddy Clearwater - Mean Case Of The Blues
DYEAR=1996
DGENRE=Blues
TTITLE0=Eddy The Cheif Clearwater - Mean Case of the Blues
TTITLE1=Eddy The Cheif Clearwater - Send For Me
TTITLE2=Eddy The Cheif Clearwater - Check Up On My Baby
TTITLE3=Eddy The Cheif Clearwater - Love Being Loved By You
TTITLE4=Eddy The Cheif Clearwater - Make It If You Try
TTITLE5=Eddy The Cheif Clearwater - Hard Way to Make an Easy Living
TTITLE6=Eddy The Cheif Clearwater - Look Whatcha Done
TTITLE7=Eddy The Cheif Clearwater - Come On Down
TTITLE8=Eddy The Cheif Clearwater - Party at My House
TTITLE9=Eddy The Cheif Clearwater - Don't Take My Blues
EXTD=
EXTT0=
EXTT1=
EXTT2=
EXTT3=
EXTT4=
EXTT5=
EXTT6=
EXTT7=
EXTT8=
EXTT9=
PLAYORDER=
